name Walk4.mot
datacolumns 19
datarows 22
range 1.45100000 1.47200000
endheader

                time	   L_ground_force_vx	   L_ground_force_vy	   L_ground_force_vz	   L_ground_force_px	   L_ground_force_py	   L_ground_force_pz	   R_ground_force_vx	   R_ground_force_vy	   R_ground_force_vz	   R_ground_force_px	   R_ground_force_py	   R_ground_force_pz	   L_ground_torque_x	   L_ground_torque_y	   L_ground_torque_z	   R_ground_torque_x	   R_ground_torque_y	   R_ground_torque_z	
          1.45100000	          0.05270294	          0.12508767	         -0.00537823	         -0.00038926	          0.00000000	         -0.00003916	        -23.39709041	        720.76583849	        -42.43883190	          0.17634051	          0.00000000	          0.09511384	          0.00000000	         -0.00027355	          0.00000000	          0.00000000	          2.02387107	          0.00000000	
          1.45200000	          0.04976969	          0.11838950	         -0.00553640	         -0.00038865	          0.00000000	         -0.00003922	        -23.12364296	        719.23280418	        -42.36017200	          0.17681083	          0.00000000	          0.09516608	          0.00000000	         -0.00027518	          0.00000000	          0.00000000	          2.00855382	          0.00000000	
          1.45300000	          0.04689776	          0.11181348	         -0.00566019	         -0.00038663	          0.00000000	         -0.00003913	        -22.85224426	        717.71512964	        -42.28482696	          0.17728180	          0.00000000	          0.09521848	          0.00000000	         -0.00027564	          0.00000000	          0.00000000	          1.99397245	          0.00000000	
          1.45400000	          0.04409280	          0.10537406	         -0.00575208	         -0.00038332	          0.00000000	         -0.00003890	        -22.58281415	        716.21379541	        -42.21278524	          0.17775339	          0.00000000	          0.09527103	          0.00000000	         -0.00027501	          0.00000000	          0.00000000	          1.98012173	          0.00000000	
          1.45500000	          0.04135972	          0.09908396	         -0.00581441	         -0.00037884	          0.00000000	         -0.00003854	        -22.31527380	        714.72977100	        -42.14402443	          0.17822556	          0.00000000	          0.09532374	          0.00000000	         -0.00027340	          0.00000000	          0.00000000	          1.96699528	          0.00000000	
          1.45600000	          0.03870272	          0.09295425	         -0.00584947	         -0.00037331	          0.00000000	         -0.00003807	        -22.04954527	        713.26401006	        -42.07851133	          0.17869826	          0.00000000	          0.09537659	          0.00000000	         -0.00027089	          0.00000000	          0.00000000	          1.95458541	          0.00000000	
          1.45700000	          0.03612539	          0.08699447	         -0.00585945	         -0.00036684	          0.00000000	         -0.00003749	        -21.78555101	        711.81744534	        -42.01620250	          0.17917145	          0.00000000	          0.09542961	          0.00000000	         -0.00026757	          0.00000000	          0.00000000	          1.94288302	          0.00000000	
          1.45800000	          0.03363068	          0.08121268	         -0.00584644	         -0.00035954	          0.00000000	         -0.00003682	        -21.52321344	        710.39098400	        -41.95704493	          0.17964507	          0.00000000	          0.09548279	          0.00000000	         -0.00026352	          0.00000000	          0.00000000	          1.93187760	          0.00000000	
          1.45900000	          0.03122100	          0.07561560	         -0.00581244	         -0.00035149	          0.00000000	         -0.00003607	        -21.26245458	        708.98550403	        -41.90097699	          0.18011908	          0.00000000	          0.09553612	          0.00000000	         -0.00025882	          0.00000000	          0.00000000	          1.92155740	          0.00000000	
          1.46000000	          0.02889822	          0.07020867	         -0.00575937	         -0.00034281	          0.00000000	         -0.00003525	        -21.00319592	        707.60185200	        -41.84792914	          0.18059342	          0.00000000	          0.09558961	          0.00000000	         -0.00025354	          0.00000000	          0.00000000	          1.91190962	          0.00000000	
          1.46100000	          0.02666374	          0.06499616	         -0.00568905	         -0.00033356	          0.00000000	         -0.00003436	        -20.74535849	        706.24084269	        -41.79782450	          0.18106805	          0.00000000	          0.09564323	          0.00000000	         -0.00024775	          0.00000000	          0.00000000	          1.90292071	          0.00000000	
          1.46200000	          0.02451848	          0.05998123	         -0.00560321	         -0.00032384	          0.00000000	         -0.00003342	        -20.48886347	        704.90325998	        -41.75057919	          0.18154290	          0.00000000	          0.09569697	          0.00000000	         -0.00024152	          0.00000000	          0.00000000	          1.89457658	          0.00000000	
          1.46300000	          0.02246298	          0.05516604	         -0.00550350	         -0.00031373	          0.00000000	         -0.00003243	        -20.23363305	        703.58985877	        -41.70610267	          0.18201792	          0.00000000	          0.09575079	          0.00000000	         -0.00023491	          0.00000000	          0.00000000	          1.88686295	          0.00000000	
          1.46400000	          0.02049735	          0.05055180	         -0.00539146	         -0.00030328	          0.00000000	         -0.00003141	        -19.97959143	        702.30136666	        -41.66429805	          0.18249307	          0.00000000	          0.09580468	          0.00000000	         -0.00022797	          0.00000000	          0.00000000	          1.87976541	          0.00000000	
          1.46500000	          0.01862140	          0.04613885	         -0.00526858	         -0.00029258	          0.00000000	         -0.00003035	        -19.72666578	        701.03848509	        -41.62506260	          0.18296830	          0.00000000	          0.09585862	          0.00000000	         -0.00022076	          0.00000000	          0.00000000	          1.87326964	          0.00000000	
          1.46600000	          0.01683459	          0.04192677	         -0.00513624	         -0.00028169	          0.00000000	         -0.00002927	        -19.47478684	        699.80188928	        -41.58828814	          0.18344357	          0.00000000	          0.09591256	          0.00000000	         -0.00021332	          0.00000000	          0.00000000	          1.86736138	          0.00000000	
          1.46700000	          0.01513608	          0.03791438	         -0.00499574	         -0.00027066	          0.00000000	         -0.00002817	        -19.22388918	        698.59222714	        -41.55386159	          0.18391884	          0.00000000	          0.09596651	          0.00000000	         -0.00020572	          0.00000000	          0.00000000	          1.86202635	          0.00000000	
          1.46800000	          0.01352479	          0.03409987	         -0.00484831	         -0.00025954	          0.00000000	         -0.00002705	        -18.97391090	        697.41011762	        -41.52166531	          0.18439406	          0.00000000	          0.09602043	          0.00000000	         -0.00019798	          0.00000000	          0.00000000	          1.85725003	          0.00000000	
          1.46900000	          0.01199940	          0.03048083	         -0.00469510	         -0.00024838	          0.00000000	         -0.00002593	        -18.72479304	        696.25614846	        -41.49157762	          0.18486920	          0.00000000	          0.09607431	          0.00000000	         -0.00019015	          0.00000000	          0.00000000	          1.85301735	          0.00000000	
          1.47000000	          0.01055835	          0.02705432	         -0.00453717	         -0.00023724	          0.00000000	         -0.00002481	        -18.47647871	        695.13087350	        -41.46347340	          0.18534420	          0.00000000	          0.09612816	          0.00000000	         -0.00018227	          0.00000000	          0.00000000	          1.84931253	          0.00000000	
          1.47100000	          0.00919993	          0.02381691	         -0.00437552	         -0.00022615	          0.00000000	         -0.00002368	        -18.22891227	        694.03480951	        -41.43722493	          0.18581903	          0.00000000	          0.09618196	          0.00000000	         -0.00017437	          0.00000000	          0.00000000	          1.84611892	          0.00000000	
          1.47200000	          0.00792225	          0.02076476	         -0.00421108	         -0.00021514	          0.00000000	         -0.00002257	        -17.98203866	        692.96843295	        -41.41270299	          0.18629364	          0.00000000	          0.09623571	          0.00000000	         -0.00016649	          0.00000000	          0.00000000	          1.84341908	          0.00000000	
